# xmcd
#
# Track frame offsets:
#	150
#	11950
#	26512
#	42172
#	56470
#	72765
#	90975
#	104152
#	119302
#	130200
#	148382
#	162115
#
# Disc length: 2525 seconds
#
# Revision: 1
# Processed by: cddbd v1.5.1PL0 Copyright (c) Steve Scherf et al.
# Submitted via: audiograbber 1.83.01
#
DISCID=a509db0c
DTITLE=Marty Stuart - The Best Of Marty Stuart (20th Century Masters The Millen
DTITLE=nium Collection)
DYEAR=2002
DGENRE=Country
TTITLE0=Hillbilly Rock
TTITLE1=Tempted
TTITLE2=This One's Gonna Hurt You (For A Long, Long Time)
TTITLE3=Little Things
TTITLE4=Western Girls
TTITLE5=High On A Mountain Top
TTITLE6=Burn Me Down
TTITLE7=Now That's Country
TTITLE8=Till I Found You
TTITLE9=You Can't Stop Love
TTITLE10=Kiss Me, I'm Gone
TTITLE11=The Pilgrim (Act III)
EXTD=
EXTT0=
EXTT1=
EXTT2=
EXTT3=
EXTT4=
EXTT5=
EXTT6=
EXTT7=
EXTT8=
EXTT9=
EXTT10=
EXTT11=
PLAYORDER=
